HIERARCHY
ROOT Hips
{
  OFFSET 352.181 89.6817 215.948
  CHANNELS 6 Xposition Yposition Zposition Zrotation Xrotation Yrotation
  JOINT RightUpLeg
  {
    OFFSET -9.28908 -1.54242 -0.003762
    CHANNELS 3 Zrotation Xrotation Yrotation
    JOINT RightLeg
    {
      OFFSET 0.175992 -41.9066 0.16442
      CHANNELS 3 Zrotation Xrotation Yrotation
      JOINT RightFoot
      {
        OFFSET -0.850518 -41.676 1.19357
        CHANNELS 3 Zrotation Xrotation Yrotation
        End Site
        {
          OFFSET 0 -7.69 17.5
        }
      }
    }
  }
  JOINT LeftUpLeg
  {
    OFFSET 9.35911 -1.62184 0.0934226
    CHANNELS 3 Zrotation Xrotation Yrotation
    JOINT LeftLeg
    {
      OFFSET 0.11037 -41.8771 -4.76722e-05
      CHANNELS 3 Zrotation Xrotation Yrotation
      JOINT LeftFoot
      {
        OFFSET 0.784832 -42.2153 -2.4698
        CHANNELS 3 Zrotation Xrotation Yrotation
        End Site
        {
          OFFSET 0 -7.69 17.5
        }
      }
    }
  }
  JOINT Spine
  {
    OFFSET -0.0264112 14.3118 0.141242
    CHANNELS 3 Zrotation Xrotation Yrotation
    JOINT Spine1
    {
      OFFSET -0.0608006 9.71827 0.0702426
      CHANNELS 3 Zrotation Xrotation Yrotation
      JOINT Spine2
      {
        OFFSET 0.040197 10.1251 -0.0199022
        CHANNELS 3 Zrotation Xrotation Yrotation
        JOINT Spine3
        {
          OFFSET -0.018884 9.71791 0.0127475
          CHANNELS 3 Zrotation Xrotation Yrotation
          JOINT Neck
          {
            OFFSET -0.169577 10.3664 -0.0885607
            CHANNELS 3 Zrotation Xrotation Yrotation
            JOINT Head
            {
              OFFSET -0.26372 9.48406 0.127016
              CHANNELS 3 Zrotation Xrotation Yrotation
              End Site
              {
                OFFSET 0 15.95 0
              }
            }
          }
          JOINT RightShoulder
          {
            OFFSET -3.21308 6.8767 -0.0450237
            CHANNELS 3 Zrotation Xrotation Yrotation
            JOINT RightArm
            {
              OFFSET -12.7762 -0.0188046 -0.0629949
              CHANNELS 3 Zrotation Xrotation Yrotation
              JOINT RightForeArm
              {
                OFFSET -26.5383 -0.000218244 -0.103623
                CHANNELS 3 Zrotation Xrotation Yrotation
                JOINT RightHand
                {
                  OFFSET -25.8669 -0.047899 -0.0603739
                  CHANNELS 3 Zrotation Xrotation Yrotation
                  JOINT RightHandThumb1
                  {
                    OFFSET -2.48905 0.190105 3.12053
                    CHANNELS 3 Zrotation Xrotation Yrotation
                    JOINT RightHandThumb2
                    {
                      OFFSET -3.68274 0 0
                      CHANNELS 3 Zrotation Xrotation Yrotation
                      JOINT RightHandThumb3
                      {
                        OFFSET -2.55832 0 0
                        CHANNELS 3 Zrotation Xrotation Yrotation
                        End Site
                        {
                          OFFSET -2.194 0 0
                        }
                      }
                    }
                  }
                  JOINT RightInHandIndex
                  {
                    OFFSET -3.22368 0.508421 1.97842
                    CHANNELS 3 Zrotation Xrotation Yrotation
                    JOINT RightHandIndex1
                    {
                      OFFSET -5.21684 -0.091368 0.999158
                      CHANNELS 3 Zrotation Xrotation Yrotation
                      JOINT RightHandIndex2
                      {
                        OFFSET -3.61937 0 0
                        CHANNELS 3 Zrotation Xrotation Yrotation
                        JOINT RightHandIndex3
                        {
                          OFFSET -2.0521 0 0
                          CHANNELS 3 Zrotation Xrotation Yrotation
                          End Site
                          {
                            OFFSET -1.805 0 0
                          }
                        }
                      }
                    }
                  }
                  JOINT RightInHandMiddle
                  {
                    OFFSET -3.38211 0.517263 0.756737
                    CHANNELS 3 Zrotation Xrotation Yrotation
                    JOINT RightHandMiddle1
                    {
                      OFFSET -5.17411 -0.084 0.313895
                      CHANNELS 3 Zrotation Xrotation Yrotation
                      JOINT RightHandMiddle2
                      {
                        OFFSET -3.94947 0 0
                        CHANNELS 3 Zrotation Xrotation Yrotation
                        JOINT RightHandMiddle3
                        {
                          OFFSET -2.47579 0 0
                          CHANNELS 3 Zrotation Xrotation Yrotation
                          End Site
                          {
                            OFFSET -1.975 0 0
                          }
                        }
                      }
                    }
                  }
                  JOINT RightInHandRing
                  {
                    OFFSET -3.36516 0.537895 -0.128947
                    CHANNELS 3 Zrotation Xrotation Yrotation
                    JOINT RightHandRing1
                    {
                      OFFSET -4.63474 -0.022105 -0.478947
                      CHANNELS 3 Zrotation Xrotation Yrotation
                      JOINT RightHandRing2
                      {
                        OFFSET -3.44238 0 0
                        CHANNELS 3 Zrotation Xrotation Yrotation
                        JOINT RightHandRing3
                        {
                          OFFSET -2.3881 0 0
                          CHANNELS 3 Zrotation Xrotation Yrotation
                          End Site
                          {
                            OFFSET -1.857 0 0
                          }
                        }
                      }
                    }
                  }
                  JOINT RightInHandPinky
                  {
                    OFFSET -3.16105 0.469368 -1.20179
                    CHANNELS 3 Zrotation Xrotation Yrotation
                    JOINT RightHandPinky1
                    {
                      OFFSET -4.14105 -0.022105 -1.09053
                      CHANNELS 3 Zrotation Xrotation Yrotation
                      JOINT RightHandPinky2
                      {
                        OFFSET -2.75653 0 0
                        CHANNELS 3 Zrotation Xrotation Yrotation
                        JOINT RightHandPinky3
                        {
                          OFFSET -1.74189 0 0
                          CHANNELS 3 Zrotation Xrotation Yrotation
                          End Site
                          {
                            OFFSET -1.645 0 0
                          }
                        }
                      }
                    }
                  }
                }
              }
            }
          }
          JOINT LeftShoulder
          {
            OFFSET 3.21013 6.92813 0.031381
            CHANNELS 3 Zrotation Xrotation Yrotation
            JOINT LeftArm
            {
              OFFSET 12.8361 0.00272676 -0.00293476
              CHANNELS 3 Zrotation Xrotation Yrotation
              JOINT LeftForeArm
              {
                OFFSET 26.5005 -0.02636 0.00399578
                CHANNELS 3 Zrotation Xrotation Yrotation
                JOINT LeftHand
                {
                  OFFSET 25.9821 -0.0367196 0.00246136
                  CHANNELS 3 Zrotation Xrotation Yrotation
                  JOINT LeftHandThumb1
                  {
                    OFFSET 2.48905 0.190105 3.12053
                    CHANNELS 3 Zrotation Xrotation Yrotation
                    JOINT LeftHandThumb2
                    {
                      OFFSET 3.68274 0 0
                      CHANNELS 3 Zrotation Xrotation Yrotation
                      JOINT LeftHandThumb3
                      {
                        OFFSET 2.55832 0 0
                        CHANNELS 3 Zrotation Xrotation Yrotation
                        End Site
                        {
                          OFFSET 2.194 0 0
                        }
                      }
                    }
                  }
                  JOINT LeftInHandIndex
                  {
                    OFFSET 3.22368 0.508421 1.97842
                    CHANNELS 3 Zrotation Xrotation Yrotation
                    JOINT LeftHandIndex1
                    {
                      OFFSET 5.21684 -0.091368 0.999158
                      CHANNELS 3 Zrotation Xrotation Yrotation
                      JOINT LeftHandIndex2
                      {
                        OFFSET 3.61937 0 0
                        CHANNELS 3 Zrotation Xrotation Yrotation
                        JOINT LeftHandIndex3
                        {
                          OFFSET 2.0521 0 0
                          CHANNELS 3 Zrotation Xrotation Yrotation
                          End Site
                          {
                            OFFSET 1.805 0 0
                          }
                        }
                      }
                    }
                  }
                  JOINT LeftInHandMiddle
                  {
                    OFFSET 3.38211 0.517263 0.756737
                    CHANNELS 3 Zrotation Xrotation Yrotation
                    JOINT LeftHandMiddle1
                    {
                      OFFSET 5.17411 -0.084 0.313895
                      CHANNELS 3 Zrotation Xrotation Yrotation
                      JOINT LeftHandMiddle2
                      {
                        OFFSET 3.94947 0 0
                        CHANNELS 3 Zrotation Xrotation Yrotation
                        JOINT LeftHandMiddle3
                        {
                          OFFSET 2.47579 0 0
                          CHANNELS 3 Zrotation Xrotation Yrotation
                          End Site
                          {
                            OFFSET 1.975 0 0
                          }
                        }
                      }
                    }
                  }
                  JOINT LeftInHandRing
                  {
                    OFFSET 3.36516 0.537895 -0.128947
                    CHANNELS 3 Zrotation Xrotation Yrotation
                    JOINT LeftHandRing1
                    {
                      OFFSET 4.63474 -0.022105 -0.478947
                      CHANNELS 3 Zrotation Xrotation Yrotation
                      JOINT LeftHandRing2
                      {
                        OFFSET 3.44238 0 0
                        CHANNELS 3 Zrotation Xrotation Yrotation
                        JOINT LeftHandRing3
                        {
                          OFFSET 2.3881 0 0
                          CHANNELS 3 Zrotation Xrotation Yrotation
                          End Site
                          {
                            OFFSET 1.857 0 0
                          }
                        }
                      }
                    }
                  }
                  JOINT LeftInHandPinky
                  {
                    OFFSET 3.16105 0.469368 -1.20179
                    CHANNELS 3 Zrotation Xrotation Yrotation
                    JOINT LeftHandPinky1
                    {
                      OFFSET 4.14105 -0.022105 -1.09053
                      CHANNELS 3 Zrotation Xrotation Yrotation
                      JOINT LeftHandPinky2
                      {
                        OFFSET 2.75653 0 0
                        CHANNELS 3 Zrotation Xrotation Yrotation
                        JOINT LeftHandPinky3
                        {
                          OFFSET 1.74189 0 0
                          CHANNELS 3 Zrotation Xrotation Yrotation
                          End Site
                          {
                            OFFSET 1.645 0 0
                          }
                        }
                      }
                    }
                  }
                }
              }
            }
          }
        }
      }
    }
  }
}
MOTION
Frames: 3
Frame Time: 0.00833333
4.500039597535054554e+02 9.124587366148044151e-04 4.431990628468129335e-03 -2.391546104207141824e-02 2.214176748681583734e-03 3.634534898465070774e-02 -5.390442360840629055e-02 2.427963883478441096e-02 -7.539093168779723887e-03 -1.287215032150383631e-02 -1.806118423405921394e-02 -2.371778383728831083e-02 2.569704796188677400e-03 2.132257577235093654e-02 -3.336497170230403458e-03 -4.565730068323273216e-02 -1.018114672794061953e-02 -2.976104680183325885e-02 8.348432605599823142e-03 3.107590888878165175e-02 -6.049050219749891460e-02 1.448663977149120680e-02 -3.910861928355292144e-02 4.486476137670890318e-02 -1.151186986264216006e-02 1.009117001026268307e-02 4.399881582586185474e-03 -3.089459207506659554e-03 8.267880083128495428e-03 -2.494451494938604817e-04 -4.641172936482301260e-03 7.945990985700215892e-03 2.219067451926055520e-04 -7.877105006123311624e-04 1.256135014144773698e-03 -1.461514506127863924e-03 6.872270327346816955e-03 -8.022798942942395428e-03 2.724401393721952863e-02 4.425617826039401556e-03 -5.298152606873282079e-03 -4.395151804805039891e-02 -1.527275827052659504e-02 1.575233155772128024e-02 3.386180922138550820e-01 -4.876953289582764972e-01 -3.665257995869165009e-01 -7.029568812164656011e-01 4.955484346105555882e-01 3.627014743713380396e-01 -2.373935436058749182e-01 1.324802108999693084e-01 7.772757424466112397e-01 1.578672476048990914e-01 0.000000000000000000e+00 0.000000000000000000e+00 0.000000000000000000e+00 -3.511361440183369795e-16 -9.923357099399096810e-17 0.000000000000000000e+00 -1.570708867338450008e-15 3.847651806051893543e-16 0.000000000000000000e+00 -2.366907995925417859e-15 5.743672137964832952e-17 4.067881537006925809e-16 0.000000000000000000e+00 0.000000000000000000e+00 0.000000000000000000e+00 0.000000000000000000e+00 4.930241425937514505e-17 -3.461429999558222039e-16 0.000000000000000000e+00 1.032681419857970071e-16 5.106148595302328782e-16 -2.366907995925417859e-15 5.743672137964832952e-17 4.067881537006925809e-16 0.000000000000000000e+00 -5.677932176909425150e-16 -2.325007747642780963e-16 0.000000000000000000e+00 -4.863463919600907411e-16 2.533272476495915151e-16 0.000000000000000000e+00 -1.475590180433189308e-16 -3.691298913785906529e-16 -2.366907995925417859e-15 5.743672137964832952e-17 4.067881537006925809e-16 0.000000000000000000e+00 0.000000000000000000e+00 0.000000000000000000e+00 0.000000000000000000e+00 -6.152466743179731424e-16 -2.645222157760932433e-16 0.000000000000000000e+00 -6.811292399477840394e-16 9.807793475836195056e-16 -2.366907995925417859e-15 5.743672137964832952e-17 4.067881537006925809e-16 0.000000000000000000e+00 0.000000000000000000e+00 0.000000000000000000e+00 0.000000000000000000e+00 -3.801910531783381189e-16 -4.181902608334192695e-17 0.000000000000000000e+00 1.052106496732832071e-15 3.177902617307230942e-16 3.646249698678254852e-02 -8.266934322077189659e-03 -2.213163407522247134e-02 7.704237029625138344e-03 -8.964675859329175600e-02 1.032341597606564396e-02 -5.636476115209366339e-02 -1.775606279727786480e-02 -1.508736879225193728e-01 -8.672750209080346689e-03 -1.478930289715716662e-01 2.862841143188873949e-01 0.000000000000000000e+00 0.000000000000000000e+00 0.000000000000000000e+00 -1.093907772273672150e-16 -5.360900087827595184e-16 0.000000000000000000e+00 -8.640505324012357105e-16 -6.062017190180834634e-17 0.000000000000000000e+00 1.440703112933753544e-16 2.390915432777209806e-16 7.872296513018664590e-16 0.000000000000000000e+00 0.000000000000000000e+00 0.000000000000000000e+00 0.000000000000000000e+00 1.638926525354274991e-16 -7.429444237407807710e-16 0.000000000000000000e+00 -3.180872444180088429e-17 -1.298054940590943700e-16 1.440703112933753544e-16 2.390915432777209806e-16 7.872296513018664590e-16 0.000000000000000000e+00 -4.253984642060626273e-16 -1.335796140354521178e-16 0.000000000000000000e+00 4.364691444602855045e-16 7.757238911997978785e-16 0.000000000000000000e+00 -7.217948901925391028e-16 -1.062602644007812703e-16 1.440703112933753544e-16 2.390915432777209806e-16 7.872296513018664590e-16 0.000000000000000000e+00 0.000000000000000000e+00 0.000000000000000000e+00 0.000000000000000000e+00 -2.710433591734423400e-16 -1.089702981613988303e-15 0.000000000000000000e+00 -7.815236789155378805e-16 5.562468317964469022e-17 1.440703112933753544e-16 2.390915432777209806e-16 7.872296513018664590e-16 0.000000000000000000e+00 0.000000000000000000e+00 0.000000000000000000e+00 0.000000000000000000e+00 2.464020387785423662e-16 9.741835968066779685e-16 0.000000000000000000e+00 4.331480429171756349e-16 -2.667425668177556703e-16
4.500060454905553229e+02 -2.540501345153949389e-04 1.460698400813373841e-02 -1.493077789923507454e-02 5.062087551891834847e-02 6.721015693889627329e-02 -5.511323727290295960e-02 1.146049322161580425e-02 -1.164999617134008236e-01 -6.685155123134002911e-03 -1.564960211096174877e-02 -3.454885862667619184e-03 -1.334214680423227717e-02 1.197791183717064785e-02 2.164777189585671141e-02 -6.119757556661171993e-03 -3.372416157451580548e-02 -6.638562675157952397e-02 2.980182885442653890e-02 3.844206918299959003e-02 -3.052633919592313144e-02 -2.620917169629894544e-02 -1.937755901632414596e-02 3.736755247276722126e-03 2.419378641415682180e-02 1.548518975670763222e-02 -3.279283337868665882e-02 5.727168489294873210e-03 7.568010284505558884e-03 -9.394426475501285040e-03 9.929000147345483362e-03 1.213287742542970560e-02 -1.505807370042930998e-02 -1.329486269579717873e-03 1.606937248043259340e-04 -1.077018288615937689e-03 5.942867727100013125e-03 -6.819146552136884712e-03 1.873641542715303795e-02 -8.820711793609818663e-03 4.114512006394885346e-03 -1.402681340489634124e-02 8.780670682927278065e-03 1.954435231082616090e-02 2.421016596359496509e-01 -1.794885761212537401e-01 -2.969162620184996881e-01 -3.498458936054921753e-01 4.653371369445207240e-01 3.691728688892428334e-01 -2.439412792199547875e-01 1.762647473375290319e-01 7.361002294291669745e-01 1.770225100117980288e-01 0.000000000000000000e+00 0.000000000000000000e+00 0.000000000000000000e+00 6.818093025226068374e-16 1.132457163091077486e-15 0.000000000000000000e+00 -4.434326389595794450e-16 6.244579959681088979e-16 0.000000000000000000e+00 -3.167283165149418427e-15 1.352502462653124151e-16 4.030290732010285727e-16 0.000000000000000000e+00 0.000000000000000000e+00 0.000000000000000000e+00 0.000000000000000000e+00 -7.429528130607002033e-17 5.163663193535033867e-17 0.000000000000000000e+00 1.595620968037940773e-16 4.939581573065874582e-16 -3.167283165149418427e-15 1.352502462653124151e-16 4.030290732010285727e-16 0.000000000000000000e+00 2.100378299716021694e-16 -6.739658563794627644e-16 0.000000000000000000e+00 -2.453652484629973639e-16 9.035729874946452736e-16 0.000000000000000000e+00 -3.807269591532308924e-17 -6.326616723379119650e-16 -3.167283165149418427e-15 1.352502462653124151e-16 4.030290732010285727e-16 0.000000000000000000e+00 0.000000000000000000e+00 0.000000000000000000e+00 0.000000000000000000e+00 -4.886936260015247863e-16 -2.543012265351004317e-16 0.000000000000000000e+00 -4.794420074965736715e-16 6.053751936745484772e-16 -3.167283165149418427e-15 1.352502462653124151e-16 4.030290732010285727e-16 0.000000000000000000e+00 0.000000000000000000e+00 0.000000000000000000e+00 0.000000000000000000e+00 3.950192082432429054e-16 -6.174199092423021808e-19 0.000000000000000000e+00 4.357486506086592167e-16 8.386055208556892087e-16 3.049438503610708145e-02 7.738521669934591250e-03 -8.288462544879204169e-03 -3.741166970297495759e-03 -1.148996211277561880e-01 1.105567490704245821e-02 -6.938619666297524136e-02 2.431131281020681295e-02 -1.052056331489024527e-01 -9.831936279574475870e-04 -8.974470801953120247e-02 1.675966178268023798e-01 0.000000000000000000e+00 0.000000000000000000e+00 0.000000000000000000e+00 -4.156572261393031822e-16 -7.618776820296289550e-16 0.000000000000000000e+00 -4.560775650620847853e-16 -7.382935465315792307e-16 0.000000000000000000e+00 8.811863593147642494e-16 1.675284734318583985e-16 5.992775250575570659e-16 0.000000000000000000e+00 0.000000000000000000e+00 0.000000000000000000e+00 0.000000000000000000e+00 -1.766769296929968854e-16 -4.362270750127678859e-16 0.000000000000000000e+00 -2.059162976115588873e-17 -1.403767201912201291e-16 8.811863593147642494e-16 1.675284734318583985e-16 5.992775250575570659e-16 0.000000000000000000e+00 1.335740041924942752e-17 -1.364019158627174484e-16 0.000000000000000000e+00 4.220597324303918484e-16 7.363662639468117779e-16 0.000000000000000000e+00 -7.410649495088654083e-16 -7.034583577529974259e-17 8.811863593147642494e-16 1.675284734318583985e-16 5.992775250575570659e-16 0.000000000000000000e+00 0.000000000000000000e+00 0.000000000000000000e+00 0.000000000000000000e+00 1.345176945664948860e-16 -9.598681305742490250e-16 0.000000000000000000e+00 -7.251660930997249176e-16 -7.929242150429976572e-16 8.811863593147642494e-16 1.675284734318583985e-16 5.992775250575570659e-16 0.000000000000000000e+00 0.000000000000000000e+00 0.000000000000000000e+00 0.000000000000000000e+00 -1.952875582909799928e-16 4.116988472726224549e-16 0.000000000000000000e+00 4.765837573825544470e-16 -8.642908348959117126e-16
4.500083374238798228e+02 -1.520440647341470648e-03 2.283892366020345149e-02 1.551068783179474896e-03 9.194383856824389634e-02 9.513537934547271202e-02 -5.174663750838063431e-02 -1.078490337920618922e-02 -2.172435677727408976e-01 -7.424934400772891657e-04 -8.671663822007954353e-03 1.626664038732056686e-02 -2.600722339312271439e-02 -1.324045182722795051e-03 4.523490322080157833e-02 3.208311058342754041e-02 -6.206446880752471140e-02 -1.036884606175261792e-01 5.150872963955838157e-02 4.189130991753592381e-02 5.482610125272582846e-04 -6.662184769980290799e-02 2.828907794851113610e-03 -3.168063651095478356e-02 5.905220570062167523e-02 1.423599156836865762e-02 -7.748812968717423699e-02 1.455349397102423913e-02 5.819486924951550698e-03 -2.043473136983761651e-02 2.444728781388394445e-02 1.327149885909470646e-02 -3.291009396061097408e-02 -1.698161269380962747e-03 -1.030163107150088887e-03 -5.235400912173920028e-04 4.726944629912675257e-03 -4.828259388446439621e-03 1.508924478212614675e-02 -2.201722354470527290e-02 1.684396018443749463e-02 1.630848311551170299e-02 3.031860652593333996e-02 2.234052093770108605e-02 1.251849415272211496e-01 1.529990035627604716e-01 -1.777531323850185807e-01 5.757590654657718243e-02 3.202901995253068512e-01 3.078804722169700692e-01 -1.891802933846193358e-01 1.785699130492295894e-01 5.518358491974834079e-01 1.521329931162442306e-01 0.000000000000000000e+00 0.000000000000000000e+00 0.000000000000000000e+00 1.596944790086270417e-15 1.989889764629675283e-15 0.000000000000000000e+00 8.060099981108834883e-16 7.284576661012272765e-16 0.000000000000000000e+00 -3.308342605565264157e-15 2.098456427345786308e-16 2.586908483666302785e-16 0.000000000000000000e+00 0.000000000000000000e+00 0.000000000000000000e+00 0.000000000000000000e+00 -1.167209428237279354e-16 4.066363509057307503e-16 0.000000000000000000e+00 1.984876651049730779e-16 5.023873207862737906e-16 -3.308342605565264157e-15 2.098456427345786308e-16 2.586908483666302785e-16 0.000000000000000000e+00 9.759703002695996298e-16 -9.747884020609589712e-16 0.000000000000000000e+00 -4.365986576547304367e-17 1.296881191075680343e-15 0.000000000000000000e+00 1.662752375488537926e-17 -8.045144742728691510e-16 -3.308342605565264157e-15 2.098456427345786308e-16 2.586908483666302785e-16 0.000000000000000000e+00 0.000000000000000000e+00 0.000000000000000000e+00 0.000000000000000000e+00 -3.506217997686441429e-16 -1.307129968184887271e-16 0.000000000000000000e+00 -1.058189102081655261e-16 1.860635659958863161e-16 -3.308342605565264157e-15 2.098456427345786308e-16 2.586908483666302785e-16 0.000000000000000000e+00 0.000000000000000000e+00 0.000000000000000000e+00 0.000000000000000000e+00 1.009540597831673533e-15 1.067354784973816405e-16 0.000000000000000000e+00 -3.732352409645290326e-16 1.179853750710993972e-15 2.441139616018502337e-02 2.079472588805526476e-02 1.420644333772046533e-02 -2.380633468703948971e-02 -1.186300331627575255e-01 1.146805142276054873e-02 -6.108700558295021565e-02 7.414628919945673302e-02 -8.448252505234919718e-03 3.748037410004806391e-02 1.840600477931936957e-02 -3.621489884104129447e-02 0.000000000000000000e+00 0.000000000000000000e+00 0.000000000000000000e+00 -5.635800561060422218e-16 -8.591812660488461480e-16 0.000000000000000000e+00 1.937493057721852679e-16 -1.282638005347953960e-15 0.000000000000000000e+00 1.479070909929792588e-15 8.695599729832370886e-17 2.770865129714686551e-16 0.000000000000000000e+00 0.000000000000000000e+00 0.000000000000000000e+00 0.000000000000000000e+00 -4.109405137196072936e-16 -1.250925103355224805e-16 0.000000000000000000e+00 -5.114412674994186859e-17 -6.733879399055483366e-17 1.479070909929792588e-15 8.695599729832370886e-17 2.770865129714686551e-16 0.000000000000000000e+00 5.097299210145884404e-16 -4.136474908051288784e-16 0.000000000000000000e+00 3.124573534554357251e-16 4.645676535319216726e-16 0.000000000000000000e+00 -6.419691658420820071e-16 -2.774728246407074492e-17 1.479070909929792588e-15 8.695599729832370886e-17 2.770865129714686551e-16 0.000000000000000000e+00 0.000000000000000000e+00 0.000000000000000000e+00 0.000000000000000000e+00 3.818112055956780063e-16 -6.809118099471916040e-16 0.000000000000000000e+00 -6.001055995401927062e-16 -1.300215482697073309e-15 1.479070909929792588e-15 8.695599729832370886e-17 2.770865129714686551e-16 0.000000000000000000e+00 0.000000000000000000e+00 0.000000000000000000e+00 0.000000000000000000e+00 -6.497610651507398182e-16 -2.821724408632779630e-16 0.000000000000000000e+00 6.184594565324728426e-16 -1.460466317513079232e-15
